<?xml version="1.0" standalone="no"?>
<!DOCTYPE svg PUBLIC "-//W3C//DTD SVG 20010904//EN"
 "http://www.w3.org/TR/2001/REC-SVG-20010904/DTD/svg10.dtd">
<svg version="1.0" xmlns="http://www.w3.org/2000/svg"
 width="2624.000000pt" height="2624.000000pt" viewBox="0 0 2624.000000 2624.000000"
 preserveAspectRatio="xMidYMid meet">
<metadata>
Created by potrace 1.11, written by Peter Selinger 2001-2013
</metadata>
<g transform="translate(0.000000,2624.000000) scale(0.100000,-0.100000)"
fill="#000000" stroke="none">
<path d="M14670 15995 c-30 -52 -58 -95 -62 -95 -5 0 -8 -4 -8 -9 0 -5 -39
-72 -87 -150 -49 -78 -92 -149 -98 -159 -32 -55 -150 -246 -177 -285 -10 -15
-17 -31 -14 -35 2 -4 125 -8 273 -7 l268 0 36 35 c20 19 64 60 99 90 35 30 70
62 79 70 9 9 56 52 106 95 49 44 95 85 101 90 6 6 44 39 84 75 40 36 88 79
105 95 30 28 121 109 209 186 21 19 54 49 73 67 l34 32 -483 0 -483 0 -55 -95z"/>
<path d="M7 15123 c-4 -3 -7 -1082 -7 -2398 l0 -2391 465 0 465 0 1 50 c0 65
-1 205 -7 641 -3 193 -5 359 -4 370 2 25 2 -26 -4 460 -17 1246 -17 1206 4
1195 10 -5 20 -13 22 -18 1 -4 48 -48 103 -97 55 -50 109 -99 121 -110 12 -11
56 -51 98 -90 43 -38 90 -81 105 -95 14 -14 65 -60 113 -103 47 -42 97 -87
110 -100 64 -57 228 -207 278 -253 30 -28 75 -68 99 -90 24 -21 56 -50 71 -64
15 -14 67 -61 116 -105 48 -44 113 -103 144 -132 31 -29 65 -60 76 -70 20 -17
169 -152 224 -203 94 -86 198 -181 216 -197 25 -21 179 -162 234 -213 21 -19
72 -66 115 -105 86 -77 92 -83 225 -205 51 -47 101 -92 110 -100 15 -13 133
-120 210 -190 15 -14 52 -47 81 -74 30 -27 95 -86 144 -131 169 -155 180 -164
197 -165 16 0 17 148 17 2395 0 1317 -4 2395 -7 2396 -38 4 -911 1 -918 -4 -5
-3 -8 -72 -7 -154 1 -81 5 -382 8 -668 7 -539 15 -1199 17 -1225 0 -8 -1 -26
-2 -40 -1 -14 1 -170 3 -348 5 -357 10 -333 -59 -267 -27 26 -165 153 -243
224 -22 20 -175 161 -262 241 -15 14 -66 61 -114 105 -48 44 -102 94 -120 110
-18 17 -74 68 -125 115 -51 47 -107 99 -124 115 -34 32 -209 193 -256 235 -28
26 -183 168 -250 230 -20 19 -62 57 -91 84 -30 27 -84 76 -120 110 -77 72
-254 234 -323 297 -27 24 -75 69 -107 99 -31 30 -90 84 -130 120 -40 36 -102
93 -138 126 -36 34 -80 75 -97 90 -92 84 -258 237 -340 313 -33 31 -97 90
-143 131 -46 41 -103 94 -128 118 -46 43 -54 47 -66 35z"/>
<path d="M22960 15082 c-14 -20 -29 -41 -33 -47 -4 -5 -26 -35 -48 -65 -22
-30 -49 -66 -59 -80 -23 -30 -188 -259 -210 -291 -8 -12 -24 -34 -36 -48 -11
-14 -44 -60 -74 -101 -30 -41 -58 -79 -62 -85 -5 -5 -31 -41 -59 -80 -27 -38
-56 -78 -64 -88 -8 -9 -15 -19 -15 -22 0 -3 -6 -13 -14 -22 -8 -10 -36 -47
-62 -83 -26 -36 -71 -96 -99 -135 -28 -38 -62 -86 -75 -105 -14 -19 -29 -40
-35 -46 -5 -6 -17 -21 -25 -33 -8 -12 -61 -86 -118 -164 -57 -78 -110 -151
-117 -162 -45 -62 -126 -171 -133 -180 -4 -5 -30 -41 -57 -80 -27 -38 -52 -72
-55 -75 -7 -7 -152 -207 -165 -228 -5 -9 -13 -19 -16 -22 -3 -3 -47 -63 -99
-135 -51 -71 -96 -132 -99 -135 -3 -3 -26 -34 -51 -70 -24 -36 -50 -71 -57
-78 -7 -7 -20 -26 -30 -42 -9 -17 -21 -30 -25 -30 -4 0 -8 -5 -8 -10 0 -6 -5
-16 -10 -23 -6 -7 -29 -37 -51 -67 -22 -30 -46 -64 -55 -75 -8 -11 -39 -54
-69 -95 -30 -41 -61 -84 -69 -95 -8 -11 -32 -43 -53 -72 -21 -28 -45 -60 -53
-72 -20 -29 -25 -27 -51 17 -13 20 -27 42 -32 47 -7 9 -54 75 -137 195 -124
178 -151 216 -158 225 -4 6 -43 62 -87 125 -90 132 -160 230 -175 247 -5 7
-10 15 -10 17 0 3 -15 25 -32 49 -18 24 -39 53 -46 63 -7 10 -36 53 -65 94
-29 41 -79 113 -112 160 -32 47 -62 87 -67 88 -4 2 -8 10 -8 17 0 8 -10 24
-22 37 -13 13 -29 35 -37 51 -8 15 -18 27 -23 27 -4 0 -8 5 -8 11 0 6 -13 28
-28 48 -16 20 -55 74 -87 121 -32 47 -62 87 -67 88 -4 2 -8 8 -8 12 0 8 -234
348 -259 377 -6 7 -11 16 -11 22 0 5 -3 11 -8 13 -11 5 -152 208 -152 219 0 5
-3 9 -7 9 -5 0 -24 25 -43 55 -19 30 -38 55 -42 55 -5 0 -8 5 -8 11 0 5 -13
27 -28 47 -16 20 -91 127 -168 237 -76 110 -142 201 -146 203 -5 2 -8 9 -8 15
0 10 -63 100 -98 143 -5 6 -26 36 -47 67 -21 31 -41 57 -44 57 -5 0 -7 -4748
-2 -4771 0 -3 194 -6 430 -5 425 0 429 0 433 20 2 12 3 472 3 1024 -1 551 1
1002 5 1002 3 0 11 -10 19 -22 11 -19 176 -247 204 -283 11 -15 109 -150 127
-175 22 -32 103 -144 174 -240 34 -47 123 -168 196 -270 74 -102 138 -186 142
-188 4 -2 8 -8 8 -12 0 -5 23 -40 50 -77 28 -37 58 -79 68 -92 9 -14 27 -37
40 -52 12 -15 22 -31 22 -37 0 -6 4 -12 8 -14 4 -2 23 -25 42 -53 19 -27 37
-52 40 -55 18 -18 90 -121 90 -129 0 -5 4 -11 8 -13 5 -2 26 -28 48 -58 21
-30 42 -59 47 -65 4 -5 30 -41 58 -78 l50 -68 47 65 c26 36 63 89 82 116 19
28 46 66 60 84 14 19 32 44 40 56 25 37 88 123 110 150 11 14 20 30 20 37 0 6
4 13 9 15 7 2 160 214 305 422 57 82 150 211 156 216 3 3 10 12 15 21 11 17
51 75 87 125 13 17 32 44 43 60 11 16 45 63 75 105 30 43 61 85 68 95 46 69
126 180 131 184 3 3 19 25 35 49 16 25 33 50 38 55 5 6 31 43 58 81 28 39 54
75 58 81 5 5 22 29 37 52 15 23 30 41 32 38 2 -2 4 -490 4 -1084 1 -1000 2
-1082 17 -1086 28 -7 870 -2 877 6 7 7 10 4766 3 4773 -2 2 -15 -13 -28 -33z"/>
<path d="M8428 14995 c-2 -1 -41 -5 -88 -8 -90 -6 -142 -12 -200 -22 -103 -17
-150 -27 -200 -41 -30 -8 -62 -16 -71 -18 -36 -9 -174 -60 -227 -84 -31 -14
-59 -26 -62 -27 -17 -5 -46 -19 -50 -24 -3 -3 -23 -15 -45 -26 -22 -11 -70
-39 -108 -62 -37 -24 -69 -43 -72 -43 -3 0 -35 -21 -73 -47 -155 -107 -300
-234 -433 -379 -59 -65 -189 -232 -189 -243 0 -6 -4 -11 -8 -11 -4 0 -16 -15
-27 -32 -10 -18 -22 -36 -27 -39 -23 -16 -147 -272 -196 -405 -36 -98 -93
-293 -106 -364 -2 -14 -11 -56 -19 -95 -18 -82 -26 -132 -33 -200 -3 -27 -9
-75 -13 -105 -11 -82 -1 -345 15 -424 2 -12 7 -37 10 -56 3 -19 7 -45 10 -57
10 -54 31 -144 38 -168 2 -5 7 -25 11 -43 4 -18 12 -35 16 -38 5 -3 9 -13 9
-23 0 -41 188 -449 212 -459 5 -2 8 -10 8 -18 0 -8 5 -14 10 -14 6 0 10 -5 10
-11 0 -12 80 -133 92 -137 4 -2 8 -8 8 -14 0 -27 238 -287 366 -399 55 -49
199 -156 284 -212 47 -31 90 -60 95 -65 22 -18 265 -132 340 -160 44 -16 89
-33 100 -37 24 -10 16 -7 155 -43 216 -56 318 -67 595 -66 198 0 333 7 375 19
8 2 33 7 55 10 23 3 52 8 65 11 14 3 32 7 40 8 8 2 35 9 60 15 25 7 53 15 62
17 10 2 26 6 36 8 28 8 192 72 252 99 77 35 253 136 262 150 4 7 8 9 8 4 0
-12 260 179 344 253 39 35 183 178 235 235 43 46 161 203 161 214 0 5 4 11 8
13 29 11 192 320 250 473 41 109 45 119 47 128 2 4 3 8 5 10 1 1 3 9 5 17 1 8
8 33 14 55 6 22 11 43 11 47 1 4 6 22 11 40 14 46 40 194 45 253 2 28 6 66 9
85 6 41 6 357 0 415 -12 123 -26 221 -41 285 -3 14 -7 32 -9 40 -2 12 -20 78
-30 110 -1 3 -5 19 -9 35 -4 17 -11 39 -16 50 -4 11 -18 47 -31 80 -40 109
-126 272 -206 391 -43 65 -82 125 -88 133 -5 9 -12 18 -15 21 -3 3 -35 41 -70
85 -76 94 -258 279 -350 356 -36 30 -67 56 -70 59 -35 35 -239 173 -325 219
-33 18 -66 38 -72 43 -7 6 -13 8 -13 5 0 -3 -30 9 -67 27 -66 33 -247 103
-288 113 -37 8 -50 11 -50 13 0 1 -8 3 -19 5 -10 2 -39 9 -65 15 -99 23 -145
31 -281 46 -53 5 -377 13 -382 9z m337 -910 c51 -8 122 -22 160 -30 43 -9 183
-59 241 -86 60 -28 216 -117 224 -127 3 -5 21 -19 40 -32 48 -32 209 -197 244
-251 17 -24 35 -48 41 -54 6 -5 38 -57 72 -115 128 -217 196 -430 208 -649 2
-46 6 -85 9 -88 2 -2 0 -18 -4 -34 -5 -17 -5 -31 1 -35 5 -3 7 -9 4 -14 -3 -5
-7 -37 -10 -72 -4 -65 -8 -94 -26 -188 -12 -65 -68 -253 -78 -260 -3 -3 -7
-12 -9 -19 -4 -17 -54 -124 -62 -131 -3 -3 -11 -16 -18 -30 -20 -40 -56 -98
-74 -120 -10 -11 -18 -23 -18 -27 0 -3 -17 -27 -37 -52 -21 -25 -45 -54 -53
-65 -53 -66 -230 -226 -249 -226 -5 0 -16 -7 -25 -15 -17 -17 -177 -101 -241
-126 -174 -70 -330 -100 -510 -101 -66 -1 -245 11 -254 16 -3 2 -28 7 -54 10
-49 7 -184 46 -247 73 -72 30 -240 117 -240 125 0 4 -5 8 -12 8 -29 0 -197
150 -286 256 -142 169 -292 472 -327 663 -3 14 -7 37 -10 51 -15 72 -20 129
-20 275 0 88 3 180 7 205 16 97 19 116 24 130 3 8 8 28 11 44 21 128 152 404
238 502 6 6 24 29 41 50 77 95 271 274 408 377 123 92 283 143 511 163 44 4
81 8 82 9 6 4 262 -3 298 -10z"/>
<path d="M12977 14932 c-9 -2 -17 -7 -18 -10 -4 -46 -2 -142 3 -142 4 0 5 -6
2 -14 -8 -22 -10 -306 -2 -306 4 0 5 -6 2 -14 -8 -22 -10 -306 -2 -306 4 0 5
-6 2 -14 -8 -22 -10 -306 -2 -306 4 0 5 -6 2 -14 -9 -23 -10 -306 -1 -306 5 0
5 -4 2 -10 -5 -9 -10 -203 -5 -225 1 -5 1 -14 0 -20 -2 -12 -2 -148 1 -155 1
-3 0 -9 -1 -15 -6 -30 -4 -255 3 -255 5 0 5 -5 2 -10 -6 -9 -10 -171 -5 -195
1 -5 1 -14 0 -20 -3 -13 -3 -277 0 -290 1 -5 1 -14 0 -20 -2 -12 -2 -148 1
-155 1 -3 0 -9 -1 -15 -6 -30 -4 -255 3 -255 5 0 5 -5 2 -10 -6 -9 -10 -171
-5 -195 1 -5 1 -14 0 -20 -3 -13 -3 -277 0 -290 1 -5 1 -14 0 -20 -2 -12 -2
-148 1 -155 1 -3 0 -9 -1 -15 -6 -30 -4 -255 3 -255 5 0 5 -5 2 -10 -6 -9 -10
-171 -5 -195 1 -5 1 -14 0 -20 -6 -24 -2 -284 4 -294 4 -6 3 -11 -2 -11 -6 0
-8 -8 -5 -18 4 -18 65 -18 1596 -18 l1592 0 -1 428 c0 235 -4 431 -7 435 -10
9 -203 7 -218 -3 -7 -4 -10 -3 -6 2 6 10 -94 11 -110 1 -6 -4 -13 -4 -17 0 -9
9 -106 9 -106 0 0 -5 -5 -5 -11 -1 -16 10 -109 11 -109 1 0 -5 -5 -5 -12 -1
-17 11 -237 11 -231 0 4 -5 1 -6 -6 -1 -17 10 -171 12 -171 2 0 -5 -5 -5 -11
-1 -16 10 -129 11 -129 1 0 -4 -8 -4 -17 0 -10 5 -40 7 -68 6 -63 -3 -74 -3
-167 0 -43 1 -74 -2 -71 -7 4 -5 1 -6 -6 -1 -17 10 -171 12 -171 2 0 -5 -5 -5
-11 -1 -16 10 -129 11 -129 1 0 -4 -8 -4 -17 0 -10 5 -40 7 -68 6 -63 -3 -74
-3 -167 0 -43 1 -74 -2 -71 -7 4 -5 0 -6 -7 -1 -7 5 -55 8 -107 8 -79 0 -93 2
-94 16 -1 22 -1 919 0 952 l1 27 990 -1 c545 0 993 3 997 6 4 5 7 771 4 853
-1 7 -293 10 -992 10 -570 -1 -993 3 -996 8 -5 7 -8 912 -4 979 1 9 233 12
1124 12 l1122 0 2 90 c3 111 3 127 0 190 -1 28 1 55 6 62 4 6 4 13 0 16 -4 3
-7 40 -5 84 3 93 3 79 0 181 -2 45 0 82 3 82 4 0 4 15 0 33 -4 17 -6 53 -4 80
2 45 1 47 -25 48 -90 2 -3062 3 -3075 1z"/>
<path d="M25357 14932 c-16 -3 -17 -158 -17 -2301 l0 -2297 450 -1 450 0 0
2299 c0 2182 -1 2298 -17 2299 -67 2 -853 3 -866 1z"/>
</g>
</svg>
